<svg width="19" height="22" viewBox="0 0 19 22" fill="none" xmlns="http://www.w3.org/2000/svg">
<path d="M8.60436 18.1576L10.246 18.1925L10.2741 16.8707C11.0593 16.7287 11.7389 16.3994 12.313 15.8826C12.8871 15.3659 13.1852 14.5876 13.2073 13.5478C13.223 12.8076 13.0498 12.1251 12.6877 11.5003C12.3255 10.8755 11.5865 10.322 10.4705 9.83988C9.5399 9.46746 8.8976 9.14526 8.54361 8.87326C8.18962 8.60126 8.0175 8.23615 8.02724 7.77794C8.03698 7.31972 8.18928 6.96151 8.48415 6.7033C8.77902 6.44509 9.20006 6.32181 9.74729 6.33344C10.2476 6.34407 10.6356 6.48896 10.9112 6.76811C11.1868 7.04726 11.3829 7.39084 11.4993 7.79884L13.0149 7.14342C12.856 6.52294 12.5509 5.97869 12.0994 5.51067C11.6479 5.04265 11.1413 4.77622 10.5795 4.71138L10.6076 3.38961L8.96593 3.35471L8.93783 4.67649C8.15196 4.85373 7.53395 5.22849 7.08381 5.80077C6.63366 6.37305 6.40091 7.02047 6.38555 7.74304C6.36795 8.57136 6.5687 9.24563 6.9878 9.76585C7.4069 10.2861 8.07375 10.741 8.98835 11.1307C9.96474 11.557 10.6411 11.9329 11.0174 12.2582C11.3937 12.5836 11.5765 13.0018 11.5656 13.5129C11.5532 14.0945 11.3604 14.518 10.9872 14.7833C10.614 15.0487 10.1694 15.1759 9.65343 15.1649C9.13747 15.1539 8.68398 14.9636 8.29297 14.5938C7.90195 14.224 7.62031 13.6759 7.44805 12.9493L5.88557 13.6038C6.08648 14.4543 6.41203 15.1445 6.86221 15.6742C7.3124 16.2039 7.90285 16.5735 8.63358 16.783L8.60436 18.1576ZM9.38123 21.3478C8.08352 21.3202 6.86988 21.0167 5.74032 20.4373C4.61076 19.8579 3.63395 19.0834 2.80988 18.1138C1.98582 17.1442 1.34121 16.0109 0.876049 14.7139C0.41089 13.4169 0.193856 12.037 0.224948 10.5742C0.25604 9.11145 0.53151 7.74203 1.05136 6.46597C1.57121 5.18991 2.2634 4.08501 3.12792 3.15128C3.99244 2.21755 5.00128 1.48524 6.15444 0.954352C7.3076 0.423466 8.53303 0.171814 9.83074 0.199398C11.1285 0.226981 12.3421 0.530476 13.4716 1.10988C14.6012 1.68929 15.578 2.4638 16.4021 3.43343C17.2262 4.40305 17.8708 5.53636 18.3359 6.83336C18.8011 8.13036 19.0181 9.51024 18.987 10.973C18.9559 12.4358 18.6805 13.8052 18.1606 15.0812C17.6408 16.3573 16.9486 17.4622 16.0841 18.3959C15.2195 19.3297 14.2107 20.062 13.0575 20.5929C11.9044 21.1238 10.6789 21.3754 9.38123 21.3478Z" fill="white"/>
</svg>
